<svg width="324" height="324" viewBox="0 0 324 324" fill="none" xmlns="http://www.w3.org/2000/svg">
<g clip-path="url(#clip0_3137_36725)">
<path d="M162.595 43.0099C166.527 43.0099 170.459 43.3446 174.224 43.6792H174.35C175.144 43.7629 175.939 43.8047 176.692 43.8884C182.8 44.3904 187.861 44.8924 192.63 45.478C210.618 47.6951 229.735 50.5396 247.931 58.6968C253.579 61.2067 256.423 65.599 256.423 71.7901C256.381 81.9552 256.381 92.2877 256.423 102.285V102.411C256.423 116.257 256.465 130.522 256.34 144.661C256.13 165.368 253.495 185.238 248.601 203.727C245.045 217.113 237.683 229.328 226.095 241.083C210.91 256.519 191.584 269.194 167.029 279.945C165.356 280.656 163.641 281.032 161.967 281.032C160.294 281.032 158.621 280.656 157.031 279.945C131.179 268.608 111.895 255.766 96.2916 239.41C84.1605 226.776 76.3379 211.759 73.1169 194.817C70.9835 183.773 68.9337 171.893 68.1808 159.678C67.7624 152.483 67.7206 145.205 67.6788 138.135C67.6788 135.834 67.6788 133.45 67.6369 131.107C67.5951 126.339 67.5951 121.528 67.5951 116.885V111.363L67.5533 111.196C67.5115 110.986 67.5115 110.819 67.5115 110.61V99.6082C67.5115 90.4471 67.5533 80.9513 67.4278 71.6228C67.4278 65.6409 70.1468 61.2904 75.6268 58.8223C85.2062 54.43 95.6642 51.2508 106.708 49.3684C119.132 47.2349 131.723 45.6453 142.557 44.3067C148.539 43.5538 154.94 43.1354 161.507 43.0518C161.884 43.0099 162.218 43.0099 162.595 43.0099ZM162.595 40.5H161.465C154.814 40.6255 148.33 41.0439 142.265 41.7968C131.388 43.1354 118.797 44.725 106.289 46.8585C95.0367 48.7827 84.3278 52.0456 74.581 56.5216C68.2226 59.4498 64.9179 64.6787 65.0015 71.6646C65.127 80.9513 65.0852 90.4471 65.0852 99.6082V110.61C65.0852 110.903 65.127 111.237 65.1689 111.53V116.885C65.1689 121.528 65.127 126.38 65.2107 131.107C65.2525 133.45 65.2525 135.793 65.2525 138.135C65.2944 145.205 65.3362 152.525 65.7545 159.804C66.5075 172.144 68.5572 184.108 70.7325 195.235C74.079 212.637 82.0689 228.073 94.5347 241.125C110.347 257.69 129.924 270.742 156.069 282.203C157.993 283.04 160.001 283.5 162.009 283.5C164.059 283.5 166.067 283.04 168.075 282.203C192.923 271.369 212.5 258.485 227.936 242.798C239.816 230.709 247.388 218.159 251.069 204.313C256.047 185.614 258.682 165.535 258.891 144.619C259.017 130.522 259.017 116.215 258.975 102.327C258.975 92.2877 258.933 81.9134 258.975 71.7065C259.017 64.5533 255.545 59.2406 249.019 56.3124C230.488 48.0297 211.161 45.1434 192.965 42.9263C188.196 42.3406 183.092 41.8387 176.943 41.3367C176.106 41.253 175.312 41.2112 174.475 41.1275C170.585 40.8347 166.611 40.5 162.595 40.5Z" fill="#006FD8"/>
<path d="M71.7369 110.61C71.7369 97.6003 71.8624 84.5907 71.695 71.581C71.6532 67.1469 73.452 64.386 77.3842 62.5872C87.0054 58.1949 97.0869 55.2249 107.419 53.4679C119.258 51.46 131.18 49.9122 143.102 48.4481C149.251 47.6952 155.442 47.3187 161.591 47.1932C166.527 47.1095 171.464 47.6533 176.358 48.0298C181.629 48.4481 186.858 48.9501 192.128 49.6194C210.66 51.9202 229.024 54.8065 246.259 62.5036C250.316 64.3442 252.282 67.1469 252.241 71.7484C252.115 96.0526 252.366 120.315 252.115 144.619C251.906 164.238 249.563 183.648 244.502 202.64C240.779 216.528 232.998 228.031 223.042 238.155C206.519 254.929 186.69 266.768 165.273 276.096C163.055 277.058 160.88 277.1 158.621 276.138C136.492 266.433 116.078 254.176 99.2203 236.565C87.7166 224.518 80.3124 210.462 77.175 194.064C74.9579 182.602 73.0337 171.099 72.3225 159.469C71.7369 150.057 71.9042 140.561 71.7787 131.107C71.695 124.289 71.7787 117.47 71.7787 110.652C71.7787 110.624 71.7648 110.61 71.7369 110.61Z" fill="#006FD8"/>
<path d="M99.2197 75.1784H117.709V68.2344L99.2197 75.1784Z" fill="#FF9D28"/>
<path d="M117.709 68.2346V92.7061L126.452 64.9717L117.709 68.2346Z" fill="#68C5ED"/>
<path d="M117.71 75.1782H110.724L117.71 92.7057V75.1782Z" fill="#044D80"/>
<path d="M99.2197 75.1782L112.522 79.696L110.723 75.1782H99.2197Z" fill="#E54747"/>
<path d="M141.595 86.2639C141.512 86.3476 141.344 86.5149 141.093 86.6404C140.842 86.8077 140.549 86.975 140.173 87.1005C139.796 87.226 139.336 87.3933 138.793 87.477C138.249 87.5607 137.621 87.6443 136.91 87.6443C135.571 87.6443 134.358 87.3933 133.354 86.975C132.35 86.5149 131.514 85.9292 130.886 85.1344C130.259 84.3396 129.757 83.4193 129.464 82.3735C129.129 81.2859 129.004 80.1146 129.004 78.8597C129.004 77.6047 129.171 76.3916 129.506 75.304C129.841 74.2164 130.301 73.2542 131.012 72.4594C131.681 71.6646 132.518 71.0372 133.48 70.577C134.442 70.1169 135.613 69.9077 136.952 69.9077C137.621 69.9077 138.207 69.9495 138.709 70.075C139.211 70.2005 139.713 70.326 140.131 70.4934C140.508 70.6607 140.884 70.828 141.093 70.9953C141.386 71.1627 141.553 71.33 141.679 71.4555C141.804 71.581 141.972 71.7483 142.055 71.9156C142.139 72.083 142.223 72.2921 142.223 72.5013C142.223 72.8359 142.097 73.1706 141.846 73.5052C141.595 73.8399 141.344 74.1745 141.01 74.4255C140.8 74.2164 140.549 74.0072 140.298 73.7981C140.047 73.5889 139.755 73.4216 139.42 73.2124C139.085 73.0451 138.751 72.9196 138.332 72.8359C137.956 72.7523 137.496 72.6686 136.994 72.6686C136.115 72.6686 135.404 72.8359 134.819 73.1706C134.233 73.5052 133.773 73.9654 133.438 74.5092C133.062 75.0948 132.852 75.7223 132.685 76.4335C132.518 77.1446 132.434 77.8557 132.434 78.6087C132.434 79.4035 132.518 80.1565 132.685 80.8676C132.811 81.6206 133.103 82.2062 133.48 82.7919C133.856 83.3775 134.358 83.7958 134.944 84.1305C135.53 84.4651 136.283 84.6325 137.203 84.6325C137.663 84.6325 138.081 84.5906 138.5 84.4651C138.876 84.3396 139.253 84.2141 139.545 84.005C139.88 83.8377 140.131 83.6285 140.34 83.503C140.591 83.3357 140.759 83.1265 140.884 83.0429C140.968 83.1683 141.093 83.2938 141.261 83.503C141.386 83.6703 141.512 83.8795 141.637 84.005C141.763 84.1723 141.846 84.3815 141.972 84.5906C142.055 84.758 142.097 84.9671 142.097 85.0926C142.097 85.3436 142.055 85.4691 141.972 85.6782C141.93 85.8874 141.763 86.0547 141.595 86.2639ZM154.647 84.2978C154.647 85.6364 154.814 86.6404 155.232 87.226C154.898 87.3515 154.647 87.4352 154.354 87.477C154.103 87.5188 153.81 87.5607 153.517 87.5607C152.932 87.5607 152.43 87.4352 152.137 87.1842C151.844 86.9332 151.635 86.5985 151.551 86.1802C151.175 86.5567 150.673 86.9332 150.045 87.1842C149.46 87.4352 148.707 87.5607 147.828 87.5607C147.368 87.5607 146.908 87.5188 146.448 87.3933C145.988 87.2679 145.569 87.0587 145.193 86.7659C144.816 86.4731 144.523 86.0966 144.272 85.5946C144.021 85.1344 143.896 84.507 143.896 83.8377C143.896 82.9592 144.105 82.2481 144.523 81.7042C144.942 81.1604 145.444 80.7421 146.113 80.4075C146.782 80.0728 147.452 79.9055 148.163 79.7382C148.916 79.6127 149.543 79.5708 150.171 79.4872C150.38 79.4453 150.547 79.4453 150.756 79.4453H151.3V78.9852C151.3 78.3159 151.133 77.8976 150.798 77.5629C150.422 77.3119 149.878 77.1446 149.083 77.1446C148.33 77.1446 147.703 77.2701 147.159 77.5211C146.573 77.7721 146.029 78.0231 145.486 78.3159C145.235 78.0231 145.025 77.7302 144.9 77.3537C144.774 76.9773 144.691 76.7681 144.691 76.5589C144.691 76.308 144.816 76.0988 145.067 75.8896C145.36 75.6387 145.695 75.4713 146.155 75.304C146.615 75.1367 147.117 74.9693 147.744 74.8438C148.33 74.7602 148.958 74.6765 149.627 74.6765C150.547 74.6765 151.342 74.7602 151.969 74.9275C152.597 75.0948 153.141 75.3877 153.517 75.806C153.894 76.1825 154.187 76.6844 154.396 77.2701C154.563 77.8557 154.647 78.5669 154.647 79.3198V84.2978ZM151.384 81.3696H151.007C150.882 81.3696 150.756 81.3696 150.631 81.4114C150.213 81.4533 149.794 81.4951 149.376 81.5787C148.958 81.6206 148.581 81.7461 148.288 81.9552C147.954 82.1226 147.703 82.3317 147.494 82.6245C147.284 82.8755 147.159 83.252 147.159 83.6703C147.159 84.1305 147.284 84.5488 147.535 84.8834C147.828 85.2181 148.288 85.3854 148.916 85.3854C149.25 85.3854 149.543 85.3436 149.836 85.2599C150.129 85.1763 150.38 85.0926 150.631 84.9253C150.882 84.758 151.007 84.6325 151.133 84.4651C151.258 84.2978 151.3 84.1305 151.3 84.005L151.384 81.3696ZM161.005 76.3498C161.256 76.0151 161.674 75.6805 162.302 75.3458C162.888 75.0112 163.599 74.8438 164.477 74.8438C165.105 74.8438 165.69 74.9275 166.276 75.1785C166.862 75.4295 167.364 75.7641 167.782 76.1825C168.242 76.6426 168.577 77.2701 168.828 78.0649C169.079 78.8597 169.204 79.78 169.204 80.9513C169.204 82.2481 169.037 83.3775 168.744 84.256C168.451 85.1344 168.075 85.8037 167.573 86.3057C167.113 86.8077 166.569 87.1842 165.941 87.3933C165.356 87.6025 164.728 87.728 164.184 87.728C163.724 87.728 163.264 87.6862 162.888 87.5607C162.511 87.4352 162.218 87.3097 161.967 87.1842C161.716 87.0587 161.507 86.9332 161.382 86.8077C161.256 86.6822 161.131 86.5567 161.131 86.5567V92.8315H157.659V75.2203C157.742 75.1785 157.826 75.1785 157.993 75.1785C158.077 75.1367 158.244 75.1367 158.37 75.1367C158.537 75.1367 158.663 75.0948 158.83 75.0948C159.416 75.0948 159.876 75.1785 160.252 75.3458C160.629 75.5968 160.88 75.8896 161.005 76.3498ZM165.607 81.0349C165.607 80.533 165.565 80.031 165.481 79.6127C165.397 79.1525 165.23 78.8179 165.063 78.4414C164.895 78.1067 164.603 77.8557 164.268 77.6884C163.933 77.5211 163.515 77.4374 163.055 77.4374C162.344 77.4374 161.842 77.6047 161.549 77.8139C161.298 78.0649 161.131 78.3995 161.131 78.6924V84.0886C161.256 84.256 161.507 84.3815 161.884 84.5488C162.26 84.7161 162.637 84.7998 163.097 84.7998C163.975 84.7998 164.603 84.4651 165.021 83.7958C165.397 83.2102 165.607 82.2899 165.607 81.0349ZM171.881 85.4273C171.756 85.0926 171.672 84.758 171.63 84.3396C171.589 83.9632 171.589 83.5867 171.589 83.2102V71.4137C171.714 71.3718 171.84 71.3718 171.965 71.3718C172.091 71.33 172.216 71.33 172.342 71.33C172.467 71.33 172.593 71.2882 172.76 71.2882C173.011 71.2882 173.304 71.33 173.555 71.3718C173.806 71.4137 174.057 71.5391 174.308 71.7065C174.559 71.8738 174.726 72.083 174.851 72.3339C174.977 72.5849 175.061 72.9196 175.061 73.3379V75.1785H178.658V77.7302H175.102V83.1684C175.102 84.3815 175.563 84.9253 176.525 84.9253C176.776 84.9253 176.985 84.8834 177.194 84.8416C177.403 84.758 177.612 84.6743 177.78 84.5906C177.947 84.507 178.114 84.4233 178.24 84.2978C178.365 84.2141 178.449 84.1305 178.491 84.0468C178.742 84.4233 178.951 84.7161 179.076 85.0089C179.202 85.2599 179.286 85.5109 179.286 85.8037C179.286 86.0547 179.202 86.2639 179.035 86.4731C178.825 86.6822 178.574 86.8914 178.282 87.0587C177.947 87.226 177.57 87.3933 177.11 87.5188C176.65 87.6443 176.148 87.6862 175.604 87.6862C174.559 87.6862 173.722 87.477 173.136 87.1005C172.509 86.6404 172.091 86.0966 171.881 85.4273ZM187.401 85.0926C187.819 85.0926 188.196 85.0508 188.53 84.9253C188.865 84.8416 189.158 84.7161 189.409 84.5906C189.66 84.4651 189.869 84.2978 190.078 84.1305C190.287 83.9632 190.455 83.7958 190.58 83.6703C190.789 83.9213 190.998 84.256 191.208 84.6743C191.459 85.0508 191.542 85.4273 191.542 85.6782C191.542 86.0547 191.333 86.3894 190.915 86.6822C190.538 86.9332 190.036 87.1842 189.409 87.3933C188.74 87.5607 187.987 87.6862 187.108 87.6862C186.313 87.6862 185.518 87.6025 184.766 87.3515C183.971 87.1424 183.301 86.7659 182.674 86.2639C182.088 85.7619 181.586 85.0508 181.21 84.2141C180.833 83.3357 180.624 82.2899 180.624 80.9513C180.624 79.8636 180.792 78.9434 181.126 78.1904C181.461 77.3956 181.921 76.7681 182.423 76.2661C182.967 75.7641 183.594 75.3877 184.305 75.1367C184.975 74.8857 185.728 74.7602 186.439 74.7602C187.359 74.7602 188.196 74.9275 188.865 75.2203C189.534 75.5132 190.078 75.8896 190.496 76.4335C190.915 76.9354 191.208 77.5211 191.375 78.1486C191.584 78.8179 191.626 79.4453 191.626 80.1983V81.0349C191.626 81.2023 191.584 81.3278 191.584 81.4951C191.584 81.6624 191.584 81.7461 191.542 81.8297H184.054C184.096 82.75 184.431 83.5448 184.933 84.1723C185.477 84.7998 186.313 85.0926 187.401 85.0926ZM188.572 79.9473C188.572 79.1525 188.405 78.4414 188.112 77.9394C187.819 77.4374 187.234 77.1446 186.439 77.1446C185.728 77.1446 185.184 77.3956 184.766 77.8976C184.347 78.3995 184.138 79.0688 184.138 79.9473H188.572ZM197.733 76.3916C197.817 76.2243 197.984 76.057 198.152 75.8896C198.319 75.7223 198.528 75.5132 198.779 75.3877C199.03 75.2203 199.281 75.1367 199.574 75.0112C199.867 74.9275 200.201 74.8438 200.536 74.8438C200.745 74.8438 200.954 74.8857 201.164 74.8857C201.415 74.9275 201.624 74.9693 201.791 75.053C202 75.1367 202.167 75.2622 202.293 75.4295C202.418 75.5968 202.502 75.806 202.502 76.0151C202.502 76.3916 202.418 76.8099 202.251 77.3119C202.042 77.7721 201.875 78.1904 201.666 78.525C201.373 78.274 201.08 78.1067 200.787 77.9812C200.494 77.8557 200.16 77.8139 199.783 77.8139C199.281 77.8139 198.821 77.9812 198.486 78.274C198.11 78.6087 197.942 78.9434 197.942 79.3617V87.6025H194.47V75.2203C194.554 75.1785 194.638 75.1785 194.805 75.1785C194.889 75.1367 195.014 75.1367 195.182 75.1367C195.307 75.1367 195.474 75.0948 195.642 75.0948C196.186 75.0948 196.646 75.1785 197.064 75.4295C197.399 75.6387 197.608 75.9733 197.733 76.3916ZM207.606 76.3916C207.689 76.2243 207.815 76.057 208.024 75.8896C208.191 75.7223 208.4 75.5132 208.651 75.3877C208.902 75.2203 209.153 75.1367 209.488 75.0112C209.823 74.8857 210.116 74.8438 210.45 74.8438C210.659 74.8438 210.868 74.8857 211.078 74.8857C211.287 74.9275 211.496 74.9693 211.705 75.053C211.914 75.1367 212.082 75.2622 212.165 75.4295C212.249 75.5968 212.374 75.806 212.374 76.0151C212.374 76.3916 212.291 76.8099 212.123 77.3119C211.914 77.7721 211.747 78.1904 211.538 78.525C211.245 78.274 210.952 78.1067 210.701 77.9812C210.408 77.8557 210.074 77.8139 209.655 77.8139C209.153 77.8139 208.693 77.9812 208.359 78.274C208.024 78.5669 207.815 78.9434 207.815 79.3617V87.6025H204.343V75.2203C204.426 75.1785 204.552 75.1785 204.677 75.1785C204.761 75.1367 204.887 75.1367 205.054 75.1367C205.179 75.1367 205.347 75.0948 205.514 75.0948C206.058 75.0948 206.56 75.1785 206.936 75.4295C207.229 75.6387 207.48 75.9733 207.606 76.3916ZM224.129 84.2978C224.129 85.6364 224.338 86.6404 224.715 87.226C224.38 87.3515 224.129 87.4352 223.878 87.477C223.627 87.5188 223.334 87.5607 223.041 87.5607C222.414 87.5607 221.996 87.4352 221.661 87.1842C221.326 86.9332 221.159 86.5985 221.034 86.1802C220.657 86.5567 220.197 86.9332 219.569 87.1842C218.942 87.4352 218.231 87.5607 217.311 87.5607C216.85 87.5607 216.39 87.5188 215.93 87.3933C215.47 87.2679 215.052 87.0587 214.675 86.7659C214.299 86.4731 214.006 86.0966 213.755 85.5946C213.546 85.1344 213.378 84.507 213.378 83.8377C213.378 82.9592 213.588 82.2481 214.006 81.7042C214.424 81.1604 214.926 80.7421 215.595 80.4075C216.265 80.0728 216.892 79.9055 217.645 79.7382C218.398 79.6127 219.067 79.5708 219.653 79.4872C219.862 79.4453 220.071 79.4453 220.281 79.4453H220.824V78.9852C220.824 78.3159 220.657 77.8976 220.322 77.5629C219.946 77.3119 219.402 77.1446 218.649 77.1446C217.896 77.1446 217.269 77.2701 216.725 77.5211C216.181 77.7721 215.595 78.0231 215.052 78.3159C214.842 78.0231 214.633 77.7302 214.466 77.3537C214.299 76.9773 214.257 76.7681 214.257 76.5589C214.257 76.308 214.382 76.0988 214.675 75.8896C214.926 75.6387 215.303 75.4713 215.763 75.304C216.223 75.1367 216.767 74.9693 217.352 74.8438C217.938 74.7602 218.566 74.6765 219.235 74.6765C220.155 74.6765 220.908 74.7602 221.536 74.9275C222.163 75.0948 222.707 75.3877 223.083 75.806C223.502 76.1825 223.753 76.6844 223.92 77.2701C224.087 77.8557 224.171 78.5669 224.171 79.3198L224.129 84.2978ZM220.866 81.3696H220.532C220.406 81.3696 220.322 81.3696 220.155 81.4114C219.737 81.4533 219.318 81.4951 218.9 81.5787C218.482 81.6206 218.105 81.7461 217.813 81.9552C217.478 82.1226 217.227 82.3317 217.018 82.6245C216.809 82.8755 216.683 83.252 216.683 83.6703C216.683 84.1305 216.809 84.5488 217.101 84.8834C217.352 85.2181 217.854 85.3854 218.482 85.3854C218.816 85.3854 219.109 85.3436 219.402 85.2599C219.695 85.1763 219.946 85.0926 220.197 84.9253C220.406 84.758 220.615 84.6325 220.699 84.4651C220.824 84.2978 220.908 84.1305 220.908 84.005L220.866 81.3696Z" fill="white"/>
<path d="M112.188 105.381L114.321 109.689L119.09 110.401C119.927 110.526 120.303 111.572 119.676 112.199L116.204 115.546L117.04 120.315C117.208 121.193 116.287 121.821 115.534 121.402L111.268 119.143L107.001 121.402C106.248 121.821 105.327 121.151 105.495 120.315L106.331 115.546L102.859 112.199C102.232 111.614 102.567 110.526 103.445 110.401L108.214 109.689L110.347 105.381C110.682 104.586 111.811 104.586 112.188 105.381Z" fill="#FF9800"/>
<path d="M137.537 105.381L139.671 109.689L144.44 110.401C145.276 110.526 145.653 111.572 145.025 112.199L141.553 115.546L142.39 120.315C142.557 121.193 141.637 121.821 140.884 121.402L136.617 119.143L132.35 121.402C131.597 121.821 130.677 121.151 130.844 120.315L131.681 115.546L128.209 112.199C127.581 111.614 127.916 110.526 128.795 110.401L133.563 109.689L135.697 105.381C136.073 104.586 137.161 104.586 137.537 105.381Z" fill="#FF9800"/>
<path d="M162.888 105.381L165.021 109.689L169.79 110.401C170.627 110.526 171.003 111.572 170.376 112.199L166.904 115.546L167.74 120.315C167.908 121.193 166.988 121.821 166.235 121.402L161.968 119.143L157.701 121.402C156.948 121.821 156.028 121.151 156.195 120.315L157.032 115.546L153.56 112.199C152.932 111.614 153.267 110.526 154.145 110.401L158.914 109.689L161.047 105.381C161.424 104.586 162.512 104.586 162.888 105.381Z" fill="#FF9800"/>
<path d="M188.28 105.381L190.413 109.689L195.182 110.401C196.018 110.526 196.395 111.572 195.767 112.199L192.295 115.546L193.132 120.315C193.299 121.193 192.379 121.821 191.626 121.402L187.359 119.143L183.092 121.402C182.34 121.821 181.419 121.151 181.587 120.315L182.423 115.546L178.951 112.199C178.324 111.614 178.658 110.526 179.537 110.401L184.306 109.689L186.439 105.381C186.774 104.586 187.903 104.586 188.28 105.381Z" fill="#FF9800"/>
<path d="M212.706 105.624C212.781 105.624 212.838 105.662 212.879 105.75L215.013 110.059L215.207 110.451L215.639 110.515L220.407 111.226C220.524 111.244 220.568 111.339 220.581 111.38C220.609 111.465 220.591 111.541 220.536 111.595L217.064 114.942L216.744 115.25L216.821 115.689L217.66 120.469C217.672 120.535 217.662 120.584 217.628 120.625C217.592 120.669 217.535 120.696 217.479 120.696C217.447 120.696 217.415 120.688 217.367 120.661L213.1 118.402L212.72 118.201L212.335 118.393L212.259 118.432L208.036 120.669C208.008 120.685 207.982 120.692 207.954 120.692C207.897 120.692 207.832 120.659 207.791 120.609C207.748 120.556 207.75 120.51 207.76 120.457L208.597 115.689L208.674 115.25L208.353 114.942L204.872 111.586C204.797 111.516 204.811 111.427 204.826 111.381C204.845 111.319 204.892 111.243 205.01 111.226L209.779 110.515L210.211 110.451L210.405 110.059L212.538 105.75L212.55 105.726L212.561 105.701C212.57 105.679 212.591 105.628 212.696 105.625L212.706 105.624ZM212.706 104.788C212.687 104.788 212.669 104.788 212.65 104.789C212.295 104.802 211.948 104.998 211.789 105.379L209.655 109.688L204.886 110.399C204.008 110.524 203.673 111.612 204.301 112.197L207.773 115.544L206.936 120.313C206.804 120.973 207.349 121.529 207.954 121.529C208.117 121.529 208.283 121.489 208.442 121.4L212.65 119.171L212.709 119.142L216.976 121.4C217.14 121.492 217.312 121.533 217.479 121.533C218.078 121.533 218.613 121 218.482 120.313L217.645 115.544L221.117 112.198C221.745 111.57 221.368 110.524 220.531 110.399L215.763 109.688L213.629 105.379C213.442 104.985 213.073 104.788 212.706 104.788Z" fill="#FF9800"/>
<path d="M212.65 104.789V119.171L208.442 121.4C207.689 121.819 206.769 121.149 206.936 120.313L207.773 115.544L204.301 112.197C203.673 111.612 204.008 110.524 204.886 110.399L209.655 109.688L211.789 105.379C211.948 104.998 212.295 104.802 212.65 104.789Z" fill="#FF9800"/>
<path d="M108.307 226.705V217.902L127.442 187.751H135.265V199.702H130.726L119.528 217.446V217.811H147.239V226.705L108.307 226.705ZM130.863 234.46V224.014L131.091 220.16V187.75H141.651V234.46H130.863Z" fill="white"/>
<path d="M159.097 235.121C157.455 235.121 156.053 234.543 154.889 233.388C153.726 232.232 153.152 230.833 153.167 229.191C153.152 227.58 153.726 226.2 154.889 225.051C156.053 223.904 157.455 223.33 159.097 223.33C160.648 223.33 162.02 223.904 163.214 225.051C164.407 226.2 165.012 227.58 165.027 229.191C165.012 230.286 164.727 231.282 164.172 232.179C163.617 233.076 162.895 233.791 162.005 234.323C161.116 234.855 160.146 235.121 159.097 235.121Z" fill="white"/>
<path d="M188.519 235.098C184.884 235.098 181.643 234.517 178.792 233.353C175.941 232.19 173.706 230.609 172.086 228.61C170.467 226.61 169.657 224.349 169.657 221.824C169.657 219.894 170.121 218.122 171.049 216.51C171.976 214.899 173.234 213.557 174.823 212.485C176.412 211.413 178.187 210.725 180.149 210.421V210.056C177.579 209.585 175.477 208.391 173.842 206.475C172.208 204.559 171.391 202.317 171.391 199.747C171.391 197.314 172.132 195.148 173.614 193.247C175.097 191.346 177.126 189.849 179.704 188.754C182.281 187.659 185.219 187.112 188.519 187.112C191.818 187.112 194.757 187.659 197.334 188.754C199.911 189.849 201.941 191.346 203.423 193.247C204.906 195.148 205.647 197.314 205.647 199.747C205.647 202.332 204.822 204.579 203.172 206.487C201.522 208.395 199.428 209.585 196.889 210.056V210.421C198.835 210.725 200.603 211.413 202.192 212.485C203.781 213.557 205.043 214.899 205.978 216.51C206.913 218.122 207.38 219.894 207.38 221.824C207.38 224.349 206.567 226.61 204.94 228.61C203.313 230.609 201.082 232.19 198.246 233.353C195.41 234.517 192.168 235.098 188.519 235.098ZM188.519 227.093C189.902 227.093 191.119 226.831 192.168 226.306C193.217 225.782 194.042 225.048 194.643 224.105C195.243 223.163 195.543 222.098 195.543 220.912C195.543 219.696 195.239 218.617 194.631 217.673C194.023 216.731 193.19 215.99 192.134 215.45C191.077 214.91 189.872 214.64 188.519 214.64C187.181 214.64 185.979 214.91 184.915 215.45C183.851 215.99 183.014 216.731 182.406 217.673C181.798 218.617 181.494 219.696 181.494 220.912C181.494 222.098 181.794 223.159 182.395 224.094C182.995 225.029 183.824 225.763 184.881 226.295C185.938 226.827 187.151 227.093 188.519 227.093ZM188.519 206.68C189.705 206.68 190.758 206.437 191.678 205.951C192.597 205.464 193.32 204.787 193.844 203.921C194.369 203.054 194.631 202.073 194.631 200.979C194.631 199.884 194.369 198.919 193.844 198.082C193.32 197.246 192.601 196.588 191.689 196.109C190.777 195.63 189.72 195.391 188.519 195.391C187.333 195.391 186.276 195.63 185.349 196.109C184.421 196.588 183.699 197.246 183.182 198.082C182.665 198.919 182.407 199.884 182.407 200.979C182.407 202.074 182.669 203.05 183.193 203.909C183.718 204.769 184.444 205.446 185.372 205.939C186.299 206.434 187.348 206.68 188.519 206.68Z" fill="white"/>
<path d="M102.484 167.953V140.876H113.669C115.697 140.876 117.449 141.24 118.925 141.967C120.401 142.694 121.541 143.734 122.343 145.087C123.145 146.44 123.546 148.042 123.546 149.893C123.546 151.771 123.136 153.364 122.316 154.673C121.497 155.982 120.333 156.978 118.826 157.661C117.319 158.344 115.534 158.685 113.471 158.685H106.398V153.529H112.255C113.242 153.529 114.068 153.399 114.734 153.139C115.399 152.879 115.904 152.482 116.248 151.949C116.592 151.416 116.764 150.731 116.764 149.893C116.764 149.056 116.592 148.362 116.248 147.811C115.904 147.26 115.397 146.846 114.727 146.568C114.057 146.29 113.233 146.152 112.255 146.152H109.029V167.953L102.484 167.953ZM117.728 155.578L124.471 167.953H117.332L110.721 155.578H117.728Z" fill="white"/>
<path d="M133.478 167.953H126.444L135.58 140.876H144.293L153.429 167.953H146.396L140.036 147.698H139.824L133.478 167.953ZM132.539 157.297H147.242V162.268H132.539V157.297Z" fill="white"/>
<path d="M150.896 146.191V140.876H173.783V146.191H165.572V167.953H159.12V146.191H150.896Z" fill="white"/>
<path d="M175.812 167.953V140.876H194.692V146.191H182.356V151.744H193.726V157.072H182.356V162.639H194.692V167.953H175.812Z" fill="white"/>
<path d="M207.37 167.953H197.361V140.876H207.356C210.116 140.876 212.493 141.416 214.489 142.496C216.486 143.575 218.026 145.127 219.111 147.15C220.195 149.172 220.737 151.59 220.737 154.401C220.737 157.222 220.197 159.646 219.117 161.673C218.037 163.701 216.497 165.254 214.496 166.334C212.495 167.414 210.12 167.953 207.37 167.953ZM203.906 162.374H207.119C208.635 162.374 209.919 162.116 210.973 161.601C212.026 161.085 212.824 160.243 213.366 159.075C213.908 157.908 214.179 156.35 214.179 154.401C214.179 152.453 213.906 150.9 213.359 149.741C212.812 148.582 212.008 147.745 210.946 147.229C209.884 146.713 208.577 146.455 207.026 146.455H203.906L203.906 162.374Z" fill="white"/>
</g>
<defs>
<clipPath id="clip0_3137_36725">
<rect width="194" height="243" fill="white" transform="translate(65 40.5)"/>
</clipPath>
</defs>
</svg>
